<svg width="512" height="512" viewBox="0 0 512 512" fill="none" xmlns="http://www.w3.org/2000/svg">
<g filter="url(#filter0_d_16_45)">
<path fill-rule="evenodd" clip-rule="evenodd" d="M462 178.314C462 173.423 462.002 168.531 461.972 163.64C461.947 159.519 461.9 155.4 461.788 151.281C461.546 142.305 461.016 133.251 459.42 124.375C457.801 115.37 455.157 106.99 450.991 98.8083C446.895 90.7669 441.544 83.4084 435.16 77.0289C428.778 70.6494 421.417 65.3024 413.373 61.209C405.183 57.0415 396.793 54.3985 387.779 52.78C378.902 51.186 369.846 50.6575 360.869 50.415C356.748 50.3035 352.626 50.2565 348.504 50.231C343.61 50.201 338.716 50.2035 333.822 50.2035L276.998 50H234.499L178.681 50.2035C173.777 50.2035 168.874 50.201 163.97 50.231C159.839 50.2565 155.71 50.3035 151.581 50.415C142.583 50.6575 133.507 51.1865 124.608 52.7825C115.582 54.4005 107.18 57.0425 98.9791 61.207C90.9177 65.3009 83.5413 70.6484 77.1453 77.0289C70.7503 83.4079 65.3899 90.7649 61.2864 98.8048C57.1084 106.99 54.4595 115.376 52.8365 124.385C51.2385 133.258 50.709 142.309 50.4655 151.281C50.3545 155.4 50.3065 159.52 50.2815 163.64C50.2515 168.532 50 174.608 50 179.5L50.0015 234.544L50 277.499L50.254 333.713C50.254 338.611 50.252 343.509 50.2815 348.407C50.3065 352.533 50.3545 356.658 50.466 360.783C50.709 369.771 51.2395 378.837 52.839 387.726C54.4615 396.742 57.1099 405.135 61.2844 413.327C65.3884 421.38 70.7498 428.748 77.1453 435.136C83.5408 441.525 90.9152 446.879 98.9751 450.978C107.181 455.151 115.587 457.798 124.619 459.418C133.513 461.014 142.587 461.544 151.581 461.786C155.71 461.898 159.84 461.945 163.971 461.97C168.874 462 173.777 461.999 178.681 461.999L235.003 462H277.608L333.822 461.998C338.716 461.998 343.61 462 348.504 461.97C352.626 461.945 356.748 461.898 360.869 461.786C369.849 461.543 378.908 461.014 387.789 459.416C396.798 457.796 405.184 455.15 413.369 450.98C421.415 446.881 428.777 441.526 435.16 435.136C441.543 428.749 446.893 421.382 450.989 413.33C455.158 405.134 457.802 396.738 459.422 387.715C461.017 378.83 461.546 369.767 461.788 360.783C461.9 356.658 461.947 352.533 461.972 348.407C462.002 343.509 462 338.611 462 333.713C462 333.713 461.997 278.492 461.997 277.499V234.499C461.997 233.766 462 178.314 462 178.314Z" fill="black"/>
</g>
<path opacity="0.32" d="M249.696 96.6084L134.926 162.948C122.174 170.399 117.301 178.852 117.301 193.754V323.568C117.301 347.639 131.63 355.377 151.832 343.77L174.472 330.701V303.021L142.806 321.275C141.516 321.992 140.656 321.562 140.656 320.129V194.613C140.656 188.452 142.376 186.446 146.961 183.724L256.143 120.68C257.576 119.82 258.579 120.536 258.579 121.969V157.557L281.934 144.086V114.089C281.934 93.7427 263.881 88.5846 249.696 96.6084Z" fill="#FF5185"/>
<path opacity="0.52" d="M306.865 129.707L192.096 195.903C179.2 203.497 174.471 211.951 174.471 226.709V356.665C174.471 380.594 188.8 388.331 209.002 376.869L235.367 361.597V333.828L199.976 354.23C198.686 354.947 197.827 354.517 197.827 353.084V227.569C197.827 221.407 199.546 219.401 204.131 216.679L313.313 153.635C314.603 152.775 315.749 153.635 315.749 154.924V195.591L339.104 182.091V147.044C339.104 126.841 321.05 121.539 306.865 129.707Z" fill="#FF5185"/>
<path d="M235.367 262.529C235.367 247.772 240.238 239.317 252.991 231.867L367.761 165.527C381.946 157.503 400 162.661 400 182.864V316.403C400 331.592 396.131 339.758 382.09 347.783L269.898 412.689C249.696 424.295 235.367 416.414 235.367 392.486V262.529ZM265.027 252.499C260.442 255.222 258.722 257.228 258.722 263.389V388.904C258.722 390.338 259.582 390.91 260.872 390.194L370.484 326.863C375.355 323.998 376.645 321.704 376.645 315.973V190.745C376.645 189.455 375.642 188.739 374.209 189.455L265.027 252.499Z" fill="#FF5185"/>
<defs>
<filter id="filter0_d_16_45" x="45" y="50" width="422" height="422" filterUnits="userSpaceOnUse" color-interpolation-filters="sRGB">
<feFlood flood-opacity="0" result="BackgroundImageFix"/>
<feColorMatrix in="SourceAlpha" type="matrix" values="0 0 0 0 0 0 0 0 0 0 0 0 0 0 0 0 0 0 127 0" result="hardAlpha"/>
<feOffset dy="5"/>
<feGaussianBlur stdDeviation="2.5"/>
<feColorMatrix type="matrix" values="0 0 0 0 0 0 0 0 0 0 0 0 0 0 0 0 0 0 0.3 0"/>
<feBlend mode="normal" in2="BackgroundImageFix" result="effect1_dropShadow_16_45"/>
<feBlend mode="normal" in="SourceGraphic" in2="effect1_dropShadow_16_45" result="shape"/>
</filter>
</defs>
</svg>
